#!OML:ASF F:\VICON\USERDATA\INSTALL\rory3\rory3.ASF
:FULLY-SPECIFIED
:DEGREES
78
root 3.92254 17.6236 3.18479 18.4809 -18.5119 -2.56733
lowerback -7.2996 4.0329 3.46059
upperback -11.1523 5.24161 -0.188787
thorax -7.33973 2.31578 -2.06014
lowerneck -6.38244 13.0227 9.50678
upperneck 24.9823 15.8855 4.10414
head 9.40307 8.72767 1.52216
rclavicle 4.65032e-014 1.8487e-014
rhumerus 10.196 -21.483 2.99
rradius 118.517
rwrist -57.1432
rhand -7.70776 -45.9745
rfingers 7.12502
rthumb 18.19 -75.1439
lclavicle 4.65032e-014 1.8487e-014
lhumerus 26.7001 27.4737 -16.7317
lradius 35.9089
lwrist 37.1931
lhand -28.2417 -25.21
lfingers 7.12502
lthumb -1.61939 4.76362
rfemur -7.08488 3.82877 -2.52516
rtibia 9.93926
rfoot -34.8603 -21.9606
rtoes 52.0795
lfemur -23.6826 0.490851 -25.3475
ltibia 20.0597
lfoot -12.4404 12.2419
ltoes 11.1327
79
root 3.93215 17.6209 3.18377 18.4313 -18.5909 -2.49822
lowerback -7.23577 4.10695 3.43009
upperback -11.1621 5.33892 -0.311964
thorax -7.37163 2.36051 -2.1757
lowerneck -6.27559 12.8086 9.6326
upperneck 25.0368 15.6217 3.91591
head 9.42447 8.59757 1.40875
rclavicle -2.42517e-014 1.0138e-014
rhumerus 10.103 -21.3059 2.88681
rradius 118.452
rwrist -56.9754
rhand -7.84107 -45.8084
rfingers 7.12502
rthumb 18.0618 -74.9897
lclavicle -2.42517e-014 1.0138e-014
lhumerus 27.0088 27.5098 -16.4319
lradius 36.0625
lwrist 37.4348
lhand -28.9513 -25.4344
lfingers 7.12502
lthumb -2.30469 4.5329
rfemur -7.27403 3.88076 -2.67984
rtibia 10.2837
rfoot -34.7612 -21.9921
rtoes 51.9254
lfemur -23.6919 0.662187 -25.512
ltibia 20.1347
lfoot -12.4752 12.1257
ltoes 11.3086
80
root 3.94239 17.6173 3.17726 18.4398 -18.5861 -2.56583
lowerback -7.17918 4.15375 3.55747
upperback -11.1346 5.39888 -0.366571
thorax -7.35386 2.3792 -2.30441
lowerneck -6.31417 12.6649 9.46235
upperneck 25.2045 15.4084 4.04799
head 9.45711 8.49923 1.45976
rclavicle 3.68994e-014 1.75924e-014
rhumerus 10.1333 -21.2185 2.69969
rradius 118.34
rwrist -56.781
rhand -8.34397 -45.4895
rfingers 7.12502
rthumb 17.5778 -74.7148
lclavicle 3.68994e-014 1.75924e-014
lhumerus 27.0716 27.4998 -16.2903
lradius 36.3299
lwrist 37.5919
lhand -30.0209 -25.4039
lfingers 7.12502
lthumb -3.33763 4.5497
rfemur -7.43014 3.54502 -2.62267
rtibia 10.587
rfoot -34.222 -22.1836
rtoes 51.7815
lfemur -23.7468 0.830979 -25.5194
ltibia 20.2213
lfoot -12.4978 11.9719
ltoes 11.3623
81
root 3.94771 17.6152 3.16765 18.3743 -18.586 -2.58453
lowerback -7.05111 4.13902 3.5532
upperback -11.0702 5.38541 -0.359117
thorax -7.3565 2.37397 -2.30136
lowerneck -6.59738 12.5947 9.25719
upperneck 25.5826 15.2705 4.21015
head 9.60654 8.43669 1.56479
rclavicle 2.72956e-014 1.21756e-014
rhumerus 10.3538 -21.1748 2.464
rradius 118.213
rwrist -56.7123
rhand -9.03776 -45.3854
rfingers 7.12502
rthumb 16.9101 -74.6693
lclavicle 2.72956e-014 1.21756e-014
lhumerus 27.0731 27.7131 -15.9871
lradius 36.5869
lwrist 37.6167
lhand -30.2641 -25.3715
lfingers 7.12502
lthumb -3.57252 4.57829
rfemur -7.51657 3.39909 -2.56682
rtibia 10.7993
rfoot -33.7729 -22.6544
rtoes 51.3741
lfemur -23.7848 0.935495 -25.5204
ltibia 20.3439
lfoot -12.5268 11.8449
ltoes 11.3848
82
root 3.9525 17.6143 3.16575 18.2684 -18.7153 -2.62082
lowerback -6.93467 4.14908 3.55697
upperback -10.9576 5.40299 -0.351134
thorax -7.29652 2.38581 -2.29822
lowerneck -6.83132 12.4714 9.22577
upperneck 25.7884 15.1099 4.06814
head 9.72789 8.34424 1.53238
rclavicle -4.00178e-014 -2.73329e-014
rhumerus 10.6351 -21.1646 2.18273
rradius 118.115
rwrist -56.4713
rhand -9.04756 -45.3586
rfingers 7.12502
rthumb 16.9007 -74.6432
lclavicle -4.00178e-014 -2.73329e-014
lhumerus 27.3603 28.442 -15.2598
lradius 36.6782
lwrist 37.53
lhand -29.8654 -25.783
lfingers 7.12502
lthumb -3.18744 4.17294
rfemur -7.64221 3.40842 -2.52754
rtibia 11.0273
rfoot -33.2899 -23.3855
rtoes 50.6966
lfemur -23.7491 0.970644 -25.5021
ltibia 20.4889
lfoot -12.5275 11.9316
ltoes 11.1729
